<svg width="24" height="25" viewBox="0 0 24 25" fill="none" xmlns="http://www.w3.org/2000/svg">
<g id="Icon">
<path id="Vector (Stroke)" fill-rule="evenodd" clip-rule="evenodd" d="M3.59998 12.4992C3.59998 12.0022 4.00292 11.5992 4.49998 11.5992L17.2655 11.5992L12.2762 6.84797C11.9179 6.50345 11.9067 5.93371 12.2512 5.57542C12.5957 5.21712 13.1655 5.20595 13.5238 5.55047L20.1238 11.8505C20.3002 12.0202 20.4 12.2544 20.4 12.4992C20.4 12.744 20.3002 12.9783 20.1238 13.148L13.5238 19.448C13.1655 19.7925 12.5957 19.7813 12.2512 19.423C11.9067 19.0647 11.9179 18.495 12.2762 18.1505L17.2655 13.3992L4.49998 13.3992C4.00292 13.3992 3.59998 12.9963 3.59998 12.4992Z" fill="white"/>
</g>
</svg>
