<svg xmlns="http://www.w3.org/2000/svg" width="40" height="43" viewBox="0 0 40 43" fill="none">
  <path fill-rule="evenodd" clip-rule="evenodd" d="M13.5489 40.1269C9.82492 39.0752 5.92609 38.5447 2.14397 38.0587C1.32936 37.9568 0.573044 38.5254 0.514858 39.3264C0.398485 40.1281 0.980691 40.8612 1.73712 40.9631C5.40286 41.4309 9.18465 41.9316 12.734 42.944C13.4904 43.1636 14.3054 42.7116 14.5381 41.9339C14.7709 41.1569 14.3053 40.3471 13.5489 40.1269Z" fill="#262626"/>
  <path fill-rule="evenodd" clip-rule="evenodd" d="M24.8365 25.2177C18.8433 19.0629 12.0937 13.7003 6.21685 7.38028C5.69318 6.79003 4.76219 6.75841 4.18033 7.30942C3.59846 7.86103 3.5405 8.78856 4.12237 9.37881C9.9992 15.717 16.7488 21.0971 22.742 27.2701C23.3239 27.8463 24.2547 27.8545 24.8365 27.2877C25.3602 26.7215 25.4184 25.7939 24.8365 25.2177Z" fill="#262626"/>
  <path fill-rule="evenodd" clip-rule="evenodd" d="M36.0673 1.54341C36.2418 5.06616 36.4161 8.58891 36.5906 12.1123C36.5906 12.9192 37.2892 13.5422 38.1038 13.503C38.9184 13.4631 39.4999 12.7763 39.4999 11.9688C39.3254 8.44018 39.1512 4.91216 38.9766 1.38413C38.9184 0.577224 38.2201 -0.0417174 37.4055 0.00219986C36.649 0.0461172 36.0091 0.737085 36.0673 1.54341Z" fill="#262626"/>
</svg>