<svg xmlns="http://www.w3.org/2000/svg" width="95" height="34" viewBox="0 0 95 34" fill="none">
  <g clip-path="url(#clip0_1_82)">
    <path d="M11.0483 4.25H0.681885V29.0417L11.0483 4.25Z" fill="#4C4C4D"/>
    <path d="M18.342 4.25H28.695V29.0417L18.342 4.25Z" fill="#4C4C4D"/>
    <path d="M14.695 13.3867L21.293 29.0411H16.9641L14.9921 24.0571H10.1635L14.695 13.3867Z" fill="#4C4C4D"/>
    <path d="M45.6074 20.0143L46.8298 23.5194C46.8703 23.6071 46.9311 23.6477 47.0392 23.6477H49.3893C49.5177 23.6477 49.5379 23.5869 49.5177 23.4586L44.662 9.97206C44.6417 9.86401 44.6214 9.84375 44.5134 9.84375H41.5959C41.5149 9.84375 41.4676 9.90453 41.4676 9.99232C41.4271 10.7014 41.3663 10.9175 41.2785 11.1269L36.9496 23.4383C36.9293 23.5869 36.9766 23.6477 37.0982 23.6477H39.1985C39.3268 23.6477 39.3876 23.6071 39.4349 23.4788L40.5897 20.0143H45.6074ZM41.2583 17.7249C41.8931 15.807 42.7305 13.3488 43.0682 11.9441H43.0884C43.5071 13.4163 44.4931 16.3338 44.9389 17.7249H41.2583Z" fill="#4C4C4D"/>
    <path d="M55.76 23.8575C57.0229 23.8575 58.3668 23.6279 59.731 23.0404C59.8391 22.9999 59.8593 22.9526 59.8593 22.8513C59.8188 22.4731 59.7716 21.9261 59.7716 21.5074V8.81101C59.7716 8.72997 59.7716 8.68945 59.6703 8.68945H57.3809C57.2931 8.68945 57.2525 8.72997 57.2525 8.83803V13.1399C56.8946 13.0994 56.6447 13.0792 56.3476 13.0792C52.6535 13.0792 50.3843 15.5171 50.3843 18.5629C50.3843 22.0949 52.7143 23.8575 55.76 23.8575ZM57.2525 21.5074C56.8743 21.6289 56.4556 21.6762 56.0302 21.6762C54.3553 21.6762 52.9844 20.7307 52.9844 18.4346C52.9844 16.4018 54.3959 15.1997 56.2665 15.1997C56.6447 15.1997 56.9756 15.2402 57.2525 15.3483V21.5074Z" fill="#4C4C4D"/>
    <path d="M67.1615 13.0801C64.0076 13.0801 62.0559 15.4978 62.0559 18.4828C62.0559 21.1504 63.6092 23.8585 67.1142 23.8585C70.0789 23.8585 72.159 21.6771 72.159 18.4152C72.159 15.5383 70.3963 13.0801 67.1615 13.0801ZM67.0331 15.2006C68.816 15.2006 69.5724 16.7337 69.5724 18.4828C69.5724 20.6439 68.4581 21.7177 67.1615 21.7177C65.5609 21.7177 64.6154 20.3737 64.6154 18.4355C64.6154 16.4433 65.6217 15.2006 67.0331 15.2006Z" fill="#4C4C4D"/>
    <path d="M74.5269 8.68945C74.4391 8.68945 74.3783 8.72997 74.3783 8.83803V23.2092C74.3783 23.27 74.4391 23.3781 74.5269 23.3983C75.5331 23.709 76.5866 23.8575 77.6739 23.8575C80.7872 23.8575 83.8128 21.9261 83.8128 18.0361C83.8128 15.22 81.8813 13.0792 78.8558 13.0792C78.1602 13.0792 77.5119 13.1872 76.9446 13.3763L76.9176 8.85829C76.9176 8.70971 76.877 8.68945 76.7285 8.68945H74.5269ZM81.2262 18.2928C81.2262 20.6227 79.6324 21.7167 77.9103 21.7167C77.5524 21.7167 77.235 21.6965 76.9446 21.6087V15.4766C77.2755 15.3483 77.6739 15.2402 78.4101 15.2402C80.0714 15.2402 81.2262 16.2938 81.2262 18.2928Z" fill="#4C4C4D"/>
    <path d="M92.3568 19.0501C93.3833 19.0501 94.2275 19.0298 94.5179 18.9623C94.626 18.942 94.6665 18.9015 94.6868 18.8137C94.7475 18.5841 94.7745 18.1046 94.7745 17.5171C94.7745 15.518 93.5724 13.0801 90.4659 13.0801C87.2918 13.0801 85.5292 15.6666 85.5292 18.5841C85.5292 21.1706 86.8934 23.8585 90.7158 23.8585C92.1475 23.8585 93.0727 23.6289 93.8696 23.2507C93.9506 23.2101 93.9911 23.1426 93.9911 23.0211V21.2719C93.9911 21.1706 93.9304 21.1504 93.8696 21.1909C93.0727 21.5286 92.2083 21.6974 91.2628 21.6974C89.122 21.6974 88.1495 20.5156 88.0887 19.0501H92.3568ZM88.0887 17.2402C88.2575 16.2136 88.9059 15.0993 90.3578 15.0993C91.9584 15.0993 92.3771 16.4433 92.3771 17.0511C92.3771 17.0713 92.3771 17.1591 92.3771 17.2199C92.2893 17.2402 92.0192 17.2402 91.2223 17.2402H88.0887Z" fill="#4C4C4D"/>
  </g>
  <defs>
    <clipPath id="clip0_1_82">
      <rect width="94.2083" height="34" fill="white" transform="translate(0.681519)"/>
    </clipPath>
  </defs>
</svg>