<svg xmlns="http://www.w3.org/2000/svg" width="79" height="34" viewBox="0 0 79 34" fill="none">
  <g clip-path="url(#clip0_1_97)">
    <path d="M10.8562 26.9623C9.67342 27.17 8.4698 27.2323 7.22471 27.3982L3.42701 16.2752V27.8755C2.24419 28 1.16511 28.166 0.0444946 28.332V7.08203H3.19888L7.51519 19.1391V7.08203H10.8562V26.9623ZM17.3931 14.864C18.6798 14.864 20.6513 14.8017 21.8341 14.8017V18.122C20.3606 18.122 18.6383 18.122 17.3931 18.1843V23.1233C19.3439 22.9988 21.2946 22.8327 23.2659 22.7704V25.966L14.0727 26.6925V7.08203H23.2659V10.4023H17.3931V14.864ZM35.6133 10.4024H32.1685V25.6758C31.0479 25.6758 29.9273 25.6758 28.8484 25.7172V10.4024H25.4036V7.08203H35.6135L35.6133 10.4024ZM41.0088 14.6358H45.5535V17.956H41.0088V25.4891H37.7505V7.08203H47.0269V10.4023H41.0088V14.6358ZM52.4224 22.5837C54.3108 22.6251 56.2199 22.7706 58.0669 22.8742V26.1531C55.0994 25.9662 52.1319 25.7797 49.1021 25.7172V7.08203H52.4224V22.5837ZM60.8684 26.3813C61.9268 26.4437 63.0474 26.506 64.1264 26.6303V7.08203H60.8684V26.3813ZM78.6737 7.08203L74.461 17.1883L78.6737 28.332C77.4284 28.166 76.1834 27.9377 74.9382 27.7302L72.5518 21.5877L70.1241 27.2323C68.9202 27.0246 67.7581 26.9623 66.5547 26.7963L70.8296 17.0636L66.9696 7.08203H70.5388L72.7178 12.6643L75.0421 7.08203H78.6737V7.08203Z" fill="#4C4C4D"/>
  </g>
  <defs>
    <clipPath id="clip0_1_97">
      <rect width="78.625" height="34" fill="white" transform="translate(0.0447388)"/>
    </clipPath>
  </defs>
</svg>