<svg xmlns="http://www.w3.org/2000/svg" width="100" height="34" viewBox="0 0 100 34" fill="none">
  <g clip-path="url(#clip0_1_69)">
    <path d="M15.2742 2.18164C7.05899 2.18164 0.398926 8.84152 0.398926 17.0567C0.398926 25.2723 7.05899 31.9316 15.2742 31.9316C23.4903 31.9316 30.1497 25.2723 30.1497 17.0567C30.1497 8.84205 23.4903 2.18235 15.274 2.18235L15.2742 2.18164ZM22.0959 23.6358C21.8295 24.0728 21.2575 24.2113 20.8205 23.9431C17.328 21.8098 12.9313 21.3266 7.75335 22.5096C7.25438 22.6233 6.75702 22.3107 6.64334 21.8115C6.52912 21.3124 6.8405 20.815 7.34071 20.7013C13.0071 19.4068 17.8676 19.9642 21.7886 22.3604C22.2256 22.6286 22.3641 23.1988 22.0959 23.6358ZM23.9166 19.5855C23.5809 20.1311 22.8668 20.3034 22.3215 19.9677C18.323 17.51 12.228 16.7983 7.49862 18.2339C6.88527 18.4192 6.23745 18.0735 6.05129 17.4612C5.86656 16.8478 6.2124 16.2013 6.8247 16.0148C12.227 14.3756 18.943 15.1696 23.5347 17.9912C24.08 18.327 24.2523 19.041 23.9166 19.5856V19.5855ZM24.0729 15.3678C19.2787 12.5202 11.3688 12.2584 6.79148 13.6477C6.05645 13.8706 5.27914 13.4556 5.05639 12.7206C4.83364 11.9852 5.24823 11.2084 5.98379 10.985C11.2383 9.38986 19.9732 9.69805 25.4929 12.9748C26.1555 13.3672 26.3722 14.221 25.9796 14.8813C25.5888 15.5424 24.7327 15.7604 24.0736 15.3678H24.0729ZM40.8696 15.9135C38.3011 15.301 37.8446 14.8712 37.8446 13.9679C37.8446 13.1146 38.6475 12.5403 39.8429 12.5403C41.0011 12.5403 42.1486 12.9764 43.3529 13.8741C43.3884 13.9013 43.4346 13.9121 43.479 13.905C43.5252 13.8983 43.5643 13.8736 43.5909 13.8365L44.845 12.0687C44.8965 11.9959 44.8823 11.8955 44.813 11.8399C43.3795 10.6901 41.7667 10.1311 39.8802 10.1311C37.1074 10.1311 35.1695 11.7953 35.1695 14.1765C35.1695 16.7299 36.841 17.634 39.7293 18.3319C42.1859 18.898 42.6015 19.3723 42.6015 20.22C42.6015 21.1596 41.7631 21.744 40.4131 21.744C38.9139 21.744 37.6901 21.2378 36.3223 20.0548C36.2886 20.0246 36.2424 20.0121 36.1997 20.0139C36.1536 20.0175 36.1127 20.0388 36.0843 20.0725L34.6774 21.7458C34.6188 21.8169 34.6259 21.9199 34.6934 21.9803C36.285 23.4013 38.2425 24.1509 40.3563 24.1509C43.344 24.1509 45.2749 22.5185 45.2749 19.9908C45.2802 17.858 44.003 16.6768 40.875 15.9158L40.8696 15.9135ZM52.0355 13.3805C50.7405 13.3805 49.6783 13.8907 48.8008 14.936V13.7594C48.8008 13.6665 48.7262 13.5908 48.6339 13.5908H46.3335C46.2412 13.5908 46.1666 13.6665 46.1666 13.7594V26.8331C46.1666 26.9255 46.2412 27.0019 46.3335 27.0019H48.6339C48.7262 27.0019 48.8008 26.9255 48.8008 26.8331V22.7068C49.6783 23.6891 50.7405 24.1705 52.0355 24.1705C54.4424 24.1705 56.8794 22.3178 56.8794 18.776C56.883 15.2335 54.4459 13.3803 52.0372 13.3803L52.0355 13.3805ZM54.2043 18.776C54.2043 20.5788 53.0941 21.8382 51.5026 21.8382C49.9306 21.8382 48.744 20.5219 48.744 18.776C48.744 17.0299 49.9306 15.714 51.5026 15.714C53.0675 15.7138 54.2043 17.0013 54.2043 18.7758V18.776ZM63.1231 13.3805C60.0235 13.3805 57.5953 15.7671 57.5953 18.8146C57.5953 21.8293 60.0075 24.19 63.0858 24.19C66.1961 24.19 68.6314 21.8115 68.6314 18.776C68.6314 15.7508 66.2121 13.3809 63.1231 13.3809V13.3805ZM63.1231 21.8559C61.4747 21.8559 60.2313 20.5308 60.2313 18.7751C60.2313 17.0114 61.4321 15.7316 63.0858 15.7316C64.7449 15.7316 65.9954 17.0562 65.9954 18.8137C65.9954 20.577 64.7875 21.8559 63.1231 21.8559ZM75.2499 13.5908H72.7187V11.0035C72.7187 10.9107 72.6441 10.8351 72.5518 10.8351H70.2514C70.1591 10.8351 70.0827 10.9107 70.0827 11.0035V13.5908H68.9778C68.8855 13.5908 68.8109 13.6665 68.8109 13.7594V15.7359C68.8109 15.8286 68.8855 15.9044 68.9778 15.9044H70.0827V21.0193C70.0827 23.0851 71.1112 24.1332 73.1415 24.1332C73.9657 24.1332 74.6496 23.9626 75.2944 23.5967C75.3476 23.5683 75.3796 23.5114 75.3796 23.4511V21.5682C75.3796 21.5113 75.3494 21.4563 75.2997 21.4261C75.2499 21.3941 75.1878 21.3923 75.1363 21.419C74.694 21.641 74.2659 21.744 73.7863 21.744C73.0491 21.744 72.7187 21.4083 72.7187 20.6587V15.9053H75.2499C75.3423 15.9053 75.4169 15.8297 75.4169 15.7368V13.7604C75.4205 13.6675 75.3459 13.5919 75.2517 13.5919L75.2499 13.5908ZM84.0675 13.6009V13.2832C84.0675 12.3483 84.4263 11.9314 85.2292 11.9314C85.7088 11.9314 86.0943 12.0266 86.5259 12.1705C86.5792 12.1872 86.6343 12.1788 86.6769 12.147C86.7213 12.1152 86.7462 12.0643 86.7462 12.0103V10.0723C86.7462 9.99825 86.7 9.9327 86.6272 9.91085C86.1724 9.77532 85.5898 9.63624 84.7159 9.63624C82.5932 9.63624 81.4688 10.8324 81.4688 13.0942V13.5809H80.3639C80.2715 13.5809 80.1952 13.6565 80.1952 13.7493V15.7359C80.1952 15.8286 80.2715 15.9044 80.3639 15.9044H81.4688V23.7921C81.4688 23.8862 81.5452 23.9608 81.6375 23.9608H83.9361C84.0302 23.9608 84.1048 23.8862 84.1048 23.7921V15.905H86.2524L89.5421 23.7921C89.169 24.6199 88.8013 24.7851 88.3004 24.7851C87.8954 24.7851 87.4673 24.6643 87.0322 24.4245C86.9913 24.4031 86.9416 24.3996 86.8989 24.412C86.8545 24.428 86.8172 24.46 86.7995 24.5026L86.0197 26.2132C85.9824 26.2949 86.0143 26.3891 86.0925 26.4317C86.906 26.8722 87.6396 27.0605 88.5473 27.0605C90.2455 27.0605 91.1851 26.2683 92.0111 24.1403L96.0007 13.8311C96.022 13.7793 96.0149 13.7207 95.9829 13.6747C95.9527 13.629 95.9012 13.6015 95.8462 13.6015H93.4517C93.3789 13.6015 93.3149 13.6471 93.2918 13.7144L90.8388 20.7191L88.153 13.7098C88.1281 13.6446 88.066 13.6015 87.9967 13.6015H84.0675V13.6009ZM78.9553 13.5908H76.655C76.5626 13.5908 76.4863 13.6665 76.4863 13.7594V23.7921C76.4863 23.8862 76.5626 23.9608 76.655 23.9608H78.9553C79.0477 23.9608 79.1241 23.8862 79.1241 23.7921V13.7601C79.1241 13.6672 79.0495 13.5915 78.9553 13.5915V13.5908ZM77.8185 9.02235C76.9072 9.02235 76.1683 9.75987 76.1683 10.6709C76.1683 11.5825 76.9072 12.3209 77.8185 12.3209C78.7297 12.3209 79.4669 11.5825 79.4669 10.6709C79.4669 9.76005 78.7279 9.02235 77.8185 9.02235ZM97.9653 16.8168C97.0558 16.8168 96.3471 16.0858 96.3471 15.1982C96.3471 14.3106 97.0647 13.5713 97.9742 13.5713C98.8836 13.5713 99.5924 14.302 99.5924 15.1889C99.5924 16.0766 98.8748 16.8168 97.9653 16.8168ZM97.9742 13.7322C97.1446 13.7322 96.5176 14.3912 96.5176 15.1982C96.5176 16.0048 97.1411 16.6549 97.9653 16.6549C98.7948 16.6549 99.4218 15.9965 99.4218 15.1889C99.4218 14.3823 98.7984 13.7322 97.9742 13.7322ZM98.333 15.3554L98.7913 15.9963H98.404L97.9919 15.4083H97.6384V15.9963H97.3152V14.2974H98.0719C98.468 14.2974 98.7273 14.4994 98.7273 14.8394C98.7291 15.1179 98.5674 15.2881 98.3348 15.3554H98.333ZM98.0594 14.5889H97.6384V15.1262H98.0594C98.269 15.1262 98.3951 15.0234 98.3951 14.8573C98.3951 14.6825 98.269 14.5889 98.0594 14.5889Z" fill="#4C4C4D"/>
  </g>
  <defs>
    <clipPath id="clip0_1_69">
      <rect width="99.1667" height="34" fill="white" transform="translate(0.345337)"/>
    </clipPath>
  </defs>
</svg>