<svg xmlns="http://www.w3.org/2000/svg" width="69" height="34" viewBox="0 0 69 34" fill="none">
  <g clip-path="url(#clip0_1_65)">
    <path d="M0.643677 25.0723L7.6239 14.2109H1.47058C1.41843 13.898 1.39608 13.5553 1.39608 13.1754C1.39608 12.8104 1.41843 12.4752 1.47058 12.1697H11.4306L11.5573 12.505L4.52489 23.3888H11.1177C11.1699 23.7314 11.1922 24.089 11.1922 24.4466C11.1922 24.7893 11.1699 25.117 11.1177 25.4299H0.770319L0.643677 25.0723Z" fill="#4C4C4D"/>
    <path d="M20.7873 16.6918C20.7873 15.6712 20.5266 14.9709 20.0125 14.5686C19.4985 14.1738 18.7461 13.9727 17.7628 13.9727C17.1594 13.9727 16.5932 14.0174 16.0717 14.1142C15.5428 14.2111 15.0362 14.3302 14.5297 14.4867C14.2019 13.9205 14.038 13.2352 14.038 12.4455C14.6265 12.2593 15.2672 12.1103 15.9749 12.006C16.6826 11.9017 17.3605 11.8495 18.0161 11.8495C19.7369 11.8495 21.048 12.2444 21.9494 13.0266C22.8434 13.8088 23.2978 15.0677 23.2978 16.7886V25.0874C22.6944 25.2215 21.9643 25.3705 21.1002 25.512C20.236 25.661 19.357 25.7281 18.463 25.7281C17.6212 25.7281 16.8539 25.6536 16.176 25.4971C15.4981 25.3407 14.9171 25.0948 14.4403 24.7447C13.9635 24.402 13.5985 23.9625 13.3378 23.4261C13.077 22.8898 12.9504 22.2417 12.9504 21.4893C12.9504 20.7518 13.0994 20.0962 13.4048 19.5375C13.7028 18.9788 14.1125 18.5094 14.634 18.1444C15.148 17.7719 15.744 17.4963 16.4219 17.3175C17.0923 17.1387 17.8 17.0419 18.545 17.0419C19.0963 17.0419 19.5507 17.0568 19.9008 17.0791C20.2509 17.1015 20.5489 17.1387 20.7948 17.1685V16.6918H20.7873ZM20.7873 19.2022C20.5266 19.165 20.1988 19.1352 19.804 19.098C19.4091 19.0607 19.0739 19.0458 18.7983 19.0458C17.7255 19.0458 16.9135 19.2469 16.3548 19.6418C15.7961 20.0366 15.513 20.64 15.513 21.452C15.513 21.966 15.6099 22.3758 15.7961 22.6663C15.9823 22.9568 16.2207 23.1803 16.5038 23.3367C16.7869 23.4932 17.0998 23.59 17.4499 23.6198C17.7926 23.6571 18.1204 23.672 18.4332 23.672C18.8281 23.672 19.2378 23.6496 19.6624 23.6049C20.087 23.5602 20.4595 23.5006 20.7873 23.4112V19.2022Z" fill="#4C4C4D"/>
    <path d="M26.0913 12.1703C26.2627 12.133 26.4414 12.1107 26.6202 12.0958C26.799 12.0809 26.9853 12.0734 27.179 12.0734C27.3503 12.0734 27.5291 12.0809 27.7228 12.0958C27.909 12.1107 28.0952 12.1405 28.2666 12.1703C28.2815 12.2075 28.3038 12.3118 28.3336 12.4906C28.356 12.6694 28.3858 12.8631 28.4081 13.0717C28.4305 13.2803 28.4603 13.474 28.4826 13.6677C28.505 13.8613 28.5199 13.9805 28.5199 14.0327C28.6912 13.757 28.8998 13.4889 29.1382 13.2281C29.3766 12.9674 29.6671 12.7365 30.0023 12.5279C30.3376 12.3193 30.7175 12.1554 31.1421 12.0362C31.5667 11.917 32.0361 11.8574 32.5501 11.8574C33.3248 11.8574 34.0474 11.9841 34.7104 12.2448C35.3735 12.5055 35.9396 12.9003 36.4164 13.4442C36.8932 13.988 37.2582 14.6808 37.5264 15.5151C37.7946 16.3495 37.9286 17.3403 37.9286 18.4801C37.9286 20.7596 37.3103 22.5401 36.0812 23.8214C34.8445 25.1027 33.1013 25.7508 30.8441 25.7508C30.4642 25.7508 30.0768 25.7285 29.682 25.6763C29.2872 25.6242 28.937 25.5571 28.6465 25.4677V31.5466C28.4379 31.5838 28.2219 31.6062 27.9835 31.6211C27.7526 31.636 27.5365 31.6434 27.3503 31.6434C27.1641 31.6434 26.948 31.636 26.7171 31.6211C26.4861 31.6062 26.2701 31.5764 26.0839 31.5466V12.1703H26.0913ZM28.654 23.2627C28.9817 23.3819 29.317 23.4713 29.6597 23.5234C30.0023 23.5756 30.4493 23.5979 31.008 23.5979C31.6263 23.5979 32.1999 23.5011 32.714 23.2999C33.228 23.0988 33.675 22.7934 34.0474 22.3836C34.4199 21.9664 34.7104 21.445 34.9265 20.8192C35.1425 20.1935 35.2468 19.4411 35.2468 18.5844C35.2468 17.2062 34.9935 16.1111 34.487 15.2991C33.9804 14.4871 33.146 14.0848 31.9914 14.0848C31.5593 14.0848 31.1496 14.1593 30.7473 14.3158C30.3525 14.4722 29.9949 14.7031 29.6895 15.016C29.3766 15.3289 29.1307 15.7163 28.937 16.193C28.7434 16.6698 28.654 17.2285 28.654 17.8841V23.2627Z" fill="#4C4C4D"/>
    <path d="M41.117 14.1811H39.4334C39.3962 14.0396 39.3738 13.8831 39.3589 13.7043C39.3441 13.5255 39.3366 13.3468 39.3366 13.1754C39.3366 13.0041 39.3441 12.8253 39.3589 12.6465C39.3738 12.4677 39.4036 12.3038 39.4334 12.1697H43.6275V25.4374C43.4413 25.4746 43.2253 25.497 42.9943 25.5119C42.7634 25.5268 42.5474 25.5342 42.3611 25.5342C42.1898 25.5342 41.9886 25.5268 41.7502 25.5119C41.5193 25.497 41.3033 25.4672 41.117 25.4374V14.1811Z" fill="#4C4C4D"/>
    <path d="M49.1327 19.4334C49.17 20.8786 49.5425 21.9439 50.2576 22.6143C50.9728 23.2848 52.0306 23.62 53.4237 23.62C54.6454 23.62 55.815 23.404 56.9175 22.9719C57.0591 23.2326 57.1708 23.5455 57.2527 23.918C57.3421 24.2905 57.3868 24.6555 57.4092 25.0205C56.843 25.2589 56.2173 25.4452 55.5319 25.5644C54.854 25.6835 54.0941 25.7431 53.2672 25.7431C52.0604 25.7431 51.0249 25.5718 50.1608 25.2366C49.2966 24.9013 48.5889 24.4246 48.0302 23.8137C47.4715 23.2028 47.0618 22.4802 46.801 21.6384C46.5403 20.8041 46.4137 19.8878 46.4137 18.8821C46.4137 17.8988 46.5403 16.9825 46.7861 16.1258C47.032 15.2691 47.4193 14.5316 47.9334 13.8984C48.4474 13.2726 49.1029 12.766 49.8851 12.401C50.6674 12.0285 51.5985 11.8423 52.6638 11.8423C53.5801 11.8423 54.3772 11.9987 55.07 12.3116C55.7628 12.6245 56.3365 13.0491 56.8058 13.5929C57.2676 14.1367 57.6252 14.7849 57.8636 15.5298C58.102 16.2822 58.2286 17.0942 58.2286 17.9733C58.2286 18.2116 58.2212 18.4724 58.1988 18.7331C58.1839 19.0013 58.1616 19.2322 58.1467 19.4185H49.1327V19.4334ZM55.7032 17.5188C55.7032 17.0346 55.6362 16.5727 55.5096 16.1332C55.3829 15.6937 55.1892 15.3138 54.9434 14.986C54.6901 14.6582 54.3772 14.3975 53.9898 14.1963C53.6025 13.9952 53.1406 13.8984 52.6042 13.8984C51.5538 13.8984 50.7493 14.2187 50.1831 14.8519C49.6244 15.4926 49.2817 16.3791 49.1625 17.5188H55.7032Z" fill="#4C4C4D"/>
    <path d="M61.0595 12.1697C61.2458 12.1325 61.432 12.1101 61.6033 12.0952C61.7747 12.0803 61.9535 12.0729 62.1471 12.0729C62.3334 12.0729 62.5271 12.0803 62.7133 12.0952C62.8996 12.1101 63.0783 12.1399 63.2273 12.1697C63.2795 12.4305 63.3316 12.7657 63.3838 13.1903C63.4359 13.6149 63.4583 13.9725 63.4583 14.2631C63.8233 13.6745 64.3001 13.168 64.896 12.7359C65.492 12.3038 66.2518 12.0878 67.183 12.0878C67.3246 12.0878 67.4661 12.0952 67.6077 12.1027C67.7567 12.1101 67.8759 12.125 67.9801 12.1399C68.0174 12.2964 68.0397 12.4603 68.0546 12.6316C68.0695 12.8029 68.077 12.9817 68.077 13.1754C68.077 13.384 68.0621 13.6 68.0397 13.8235C68.0174 14.047 67.9801 14.2631 67.9503 14.4716C67.8088 14.4344 67.6673 14.4195 67.5257 14.4195C67.3767 14.4195 67.265 14.4195 67.1756 14.4195C66.7137 14.4195 66.2667 14.4865 65.8421 14.6132C65.4175 14.7398 65.0376 14.9708 64.7023 15.2985C64.3671 15.6263 64.0989 16.0733 63.8978 16.6469C63.6967 17.2131 63.5998 17.9506 63.5998 18.8445V25.4374C63.4136 25.4746 63.1975 25.497 62.9666 25.5119C62.7357 25.5268 62.5196 25.5342 62.3334 25.5342C62.1471 25.5342 61.9311 25.5268 61.7002 25.5119C61.4692 25.497 61.2458 25.4672 61.0372 25.4374V12.1697H61.0595Z" fill="#4C4C4D"/>
    <path d="M46.0634 4.36289H43.5604L45.3334 2.5899C45.1918 2.39621 45.0354 2.20997 44.8715 2.03863C44.7002 1.86729 44.5214 1.71085 44.3202 1.57676L42.5473 3.34975V0.846706C42.3163 0.809458 42.0779 0.787109 41.8321 0.787109H41.8246C41.5788 0.787109 41.3404 0.809458 41.1095 0.846706V3.34975L39.3365 1.57676C39.1428 1.7183 38.9566 1.87474 38.7852 2.03863C38.6139 2.20997 38.4649 2.38876 38.3234 2.5899L40.1038 4.36289H37.6007C37.6007 4.36289 37.5412 4.83221 37.5412 5.07805C37.5412 5.32388 37.5635 5.56227 37.6007 5.79321H40.1038L38.3308 7.5662C38.6064 7.95358 38.9491 8.29626 39.3439 8.57934L41.1169 6.80635V9.30939C41.3479 9.34664 41.5863 9.36899 41.8321 9.36899H41.8395C42.0854 9.36899 42.3238 9.34664 42.5547 9.30939V6.80635L44.3277 8.57934C44.5214 8.4378 44.7076 8.28136 44.879 8.11747C45.0503 7.94613 45.2067 7.76734 45.3408 7.5662L43.5678 5.79321H46.0709C46.1081 5.56227 46.1305 5.32388 46.1305 5.07805V5.0706C46.123 4.83221 46.1081 4.59383 46.0634 4.36289ZM42.9048 5.0855C42.9048 5.40583 42.8452 5.71126 42.7409 5.99434C42.4579 6.09864 42.1524 6.15823 41.8321 6.15823C41.5118 6.15823 41.2063 6.09864 40.9232 5.99434C40.819 5.71126 40.7594 5.40583 40.7594 5.0855V5.07805C40.7594 4.75772 40.819 4.45229 40.9232 4.1692C41.2063 4.06491 41.5118 4.00531 41.8321 4.00531C42.1524 4.00531 42.4579 4.06491 42.7409 4.1692C42.8452 4.45229 42.9048 4.75772 42.9048 5.0855Z" fill="#4C4C4D"/>
  </g>
  <defs>
    <clipPath id="clip0_1_65">
      <rect width="68" height="34" fill="white" transform="translate(0.642822)"/>
    </clipPath>
  </defs>
</svg>